# xmcd
#
# Track frame offsets:
#	150
#	1776
#	21074
#	34592
#	54786
#	80243
#	99639
#	136735
#	158411
#	187436
#
# Disc length: 2749 seconds
#
# Revision: 0
# Processed by: cddbd v1.4PL0 Copyright (c) Steve Scherf et al.
# Submitted via: EasyCDDAExtractor 4.6.0.1
#
DISCID=700abb0a
DTITLE=Gillian Welch and David Rawlings  - Acoustic Stage, Hickory, NC, 92797 Di
DTITLE=sc 1
DYEAR=1900
DGENRE=
TTITLE0=Intro
TTITLE1=Tear My Stillhouse Down
TTITLE2=Saginaw
TTITLE3=Ben Dewberry's Final Run
TTITLE4=Barroom Girls
TTITLE5=Wichita
TTITLE6=Pancho And Lefty
TTITLE7=One More Dollar
TTITLE8=My Morphine
TTITLE9=Red Clay Halo
EXTD=
EXTT0=
EXTT1=
EXTT2=
EXTT3=
EXTT4=
EXTT5=
EXTT6=
EXTT7=
EXTT8=
EXTT9=
PLAYORDER=
